<svg width="1280" height="800" viewBox="0 0 1280 800" xmlns="http://www.w3.org/2000/svg">
  <!-- Background -->
  <rect width="1280" height="800" fill="#f8f9fa"/>
  
  <!-- Browser window mockup -->
  <rect x="80" y="60" width="1120" height="680" rx="12" fill="#ffffff" stroke="#e9ecef" stroke-width="2"/>
  
  <!-- Browser header -->
  <rect x="80" y="60" width="1120" height="40" rx="12" fill="#343a40"/>
  <rect x="80" y="88" width="1120" height="12" fill="#343a40"/>
  
  <!-- Traffic lights -->
  <circle cx="105" cy="80" r="6" fill="#ff5f56"/>
  <circle cx="125" cy="80" r="6" fill="#ffbd2e"/>
  <circle cx="145" cy="80" r="6" fill="#27ca3f"/>
  
  <!-- Address bar -->
  <rect x="200" y="68" width="600" height="24" rx="12" fill="#f8f9fa" stroke="#dee2e6"/>
  <text x="220" y="83" font-family="Arial, sans-serif" font-size="12" fill="#6c757d">https://example.com</text>
  
  <!-- cVim icon in toolbar -->
  <rect x="1140" y="68" width="24" height="24" rx="4" fill="#2c3e50"/>
  <text x="1152" y="78" font-family="Arial, sans-serif" font-size="8" font-weight="bold" fill="#2ecc71" text-anchor="middle">vim</text>
  <rect x="1146" y="84" width="4" height="4" rx="1" fill="#95a5a6" opacity="0.8"/>
  <rect x="1150" y="84" width="4" height="4" rx="1" fill="#95a5a6" opacity="0.8"/>
  <rect x="1154" y="84" width="4" height="4" rx="1" fill="#95a5a6" opacity="0.8"/>
  <rect x="1158" y="84" width="4" height="4" rx="1" fill="#95a5a6" opacity="0.8"/>
  
  <!-- Main content area -->
  <rect x="80" y="100" width="1120" height="640" fill="#ffffff"/>
  
  <!-- Website content mockup -->
  <text x="640" y="180" font-family="Arial, sans-serif" font-size="32" font-weight="bold" fill="#212529" text-anchor="middle">Welcome to cVim</text>
  <text x="640" y="220" font-family="Arial, sans-serif" font-size="18" fill="#6c757d" text-anchor="middle">Vim keybindings for Google Chrome</text>
  
  <!-- Link hints demonstration -->
  <g transform="translate(200, 280)">
    <rect x="0" y="0" width="120" height="40" rx="4" fill="#007bff" opacity="0.1" stroke="#007bff" stroke-width="1" stroke-dasharray="3,3"/>
    <text x="60" y="25" font-family="Arial, sans-serif" font-size="14" fill="#007bff" text-anchor="middle">Learn More</text>
    <circle cx="10" cy="10" r="8" fill="#ff6d01"/>
    <text x="10" y="14" font-family="monospace" font-size="10" font-weight="bold" fill="#ffffff" text-anchor="middle">a</text>
  </g>
  
  <g transform="translate(350, 280)">
    <rect x="0" y="0" width="100" height="40" rx="4" fill="#28a745" opacity="0.1" stroke="#28a745" stroke-width="1" stroke-dasharray="3,3"/>
    <text x="50" y="25" font-family="Arial, sans-serif" font-size="14" fill="#28a745" text-anchor="middle">Download</text>
    <circle cx="10" cy="10" r="8" fill="#ff6d01"/>
    <text x="10" y="14" font-family="monospace" font-size="10" font-weight="bold" fill="#ffffff" text-anchor="middle">s</text>
  </g>
  
  <g transform="translate(480, 280)">
    <rect x="0" y="0" width="80" height="40" rx="4" fill="#6c757d" opacity="0.1" stroke="#6c757d" stroke-width="1" stroke-dasharray="3,3"/>
    <text x="40" y="25" font-family="Arial, sans-serif" font-size="14" fill="#6c757d" text-anchor="middle">About</text>
    <circle cx="10" cy="10" r="8" fill="#ff6d01"/>
    <text x="10" y="14" font-family="monospace" font-size="10" font-weight="bold" fill="#ffffff" text-anchor="middle">d</text>
  </g>
  
  <!-- Command bar -->
  <rect x="200" y="400" width="880" height="50" rx="8" fill="#2c3e50" stroke="#34495e" stroke-width="2"/>
  <text x="220" y="430" font-family="monospace" font-size="16" fill="#2ecc71" font-weight="bold">:</text>
  <text x="240" y="430" font-family="monospace" font-size="16" fill="#ffffff">open github.com</text>
  <rect x="380" y="425" width="2" height="16" fill="#ffffff" opacity="0.8">
    <animate attributeName="opacity" values="0.8;0;0.8" dur="1s" repeatCount="indefinite"/>
  </rect>
  
  <!-- Keyboard shortcuts display -->
  <g transform="translate(200, 500)">
    <text x="0" y="20" font-family="Arial, sans-serif" font-size="16" font-weight="bold" fill="#212529">Keyboard Navigation:</text>
    
    <g transform="translate(0, 40)">
      <rect x="0" y="0" width="24" height="24" rx="4" fill="#2c3e50"/>
      <text x="12" y="16" font-family="monospace" font-size="12" font-weight="bold" fill="#ffffff" text-anchor="middle">h</text>
      <text x="35" y="16" font-family="Arial, sans-serif" font-size="14" fill="#6c757d">← Left</text>
      
      <rect x="100" y="0" width="24" height="24" rx="4" fill="#2c3e50"/>
      <text x="112" y="16" font-family="monospace" font-size="12" font-weight="bold" fill="#ffffff" text-anchor="middle">j</text>
      <text x="135" y="16" font-family="Arial, sans-serif" font-size="14" fill="#6c757d">↓ Down</text>
      
      <rect x="200" y="0" width="24" height="24" rx="4" fill="#2c3e50"/>
      <text x="212" y="16" font-family="monospace" font-size="12" font-weight="bold" fill="#ffffff" text-anchor="middle">k</text>
      <text x="235" y="16" font-family="Arial, sans-serif" font-size="14" fill="#6c757d">↑ Up</text>
      
      <rect x="300" y="0" width="24" height="24" rx="4" fill="#2c3e50"/>
      <text x="312" y="16" font-family="monospace" font-size="12" font-weight="bold" fill="#ffffff" text-anchor="middle">l</text>
      <text x="335" y="16" font-family="Arial, sans-serif" font-size="14" fill="#6c757d">→ Right</text>
    </g>
    
    <g transform="translate(0, 80)">
      <rect x="0" y="0" width="24" height="24" rx="4" fill="#ff6d01"/>
      <text x="12" y="16" font-family="monospace" font-size="12" font-weight="bold" fill="#ffffff" text-anchor="middle">f</text>
      <text x="35" y="16" font-family="Arial, sans-serif" font-size="14" fill="#6c757d">Link hints</text>
      
      <rect x="150" y="0" width="24" height="24" rx="4" fill="#28a745"/>
      <text x="162" y="16" font-family="monospace" font-size="12" font-weight="bold" fill="#ffffff" text-anchor="middle">/</text>
      <text x="185" y="16" font-family="Arial, sans-serif" font-size="14" fill="#6c757d">Search</text>
      
      <rect x="280" y="0" width="24" height="24" rx="4" fill="#007bff"/>
      <text x="292" y="16" font-family="monospace" font-size="12" font-weight="bold" fill="#ffffff" text-anchor="middle">:</text>
      <text x="315" y="16" font-family="Arial, sans-serif" font-size="14" fill="#6c757d">Command</text>
    </g>
  </g>
  
  <!-- Logo in corner -->
  <g transform="translate(1100, 650)">
    <rect x="0" y="0" width="80" height="80" rx="12" fill="#2c3e50"/>
    <text x="40" y="30" font-family="Arial, sans-serif" font-size="16" font-weight="bold" fill="#2ecc71" text-anchor="middle">vim</text>
    <g transform="translate(40, 55)">
      <rect x="-28" y="-5" width="10" height="10" rx="2" fill="#95a5a6" opacity="0.9"/>
      <text x="-23" y="2" font-family="monospace" font-size="6" font-weight="bold" fill="#ffffff" text-anchor="middle">h</text>
      <rect x="-16" y="-5" width="10" height="10" rx="2" fill="#95a5a6" opacity="0.9"/>
      <text x="-11" y="2" font-family="monospace" font-size="6" font-weight="bold" fill="#ffffff" text-anchor="middle">j</text>
      <rect x="-4" y="-5" width="10" height="10" rx="2" fill="#95a5a6" opacity="0.9"/>
      <text x="1" y="2" font-family="monospace" font-size="6" font-weight="bold" fill="#ffffff" text-anchor="middle">k</text>
      <rect x="8" y="-5" width="10" height="10" rx="2" fill="#95a5a6" opacity="0.9"/>
      <text x="13" y="2" font-family="monospace" font-size="6" font-weight="bold" fill="#ffffff" text-anchor="middle">l</text>
    </g>
    <circle cx="65" cy="15" r="3" fill="#3498db"/>
  </g>
</svg>