<svg width="440" height="280" viewBox="0 0 440 280" xmlns="http://www.w3.org/2000/svg">
  <!-- Background gradient -->
  <defs>
    <linearGradient id="bgGradient" x1="0%" y1="0%" x2="100%" y2="100%">
      <stop offset="0%" style="stop-color:#2c3e50;stop-opacity:1" />
      <stop offset="100%" style="stop-color:#34495e;stop-opacity:1" />
    </linearGradient>
  </defs>
  
  <rect width="440" height="280" fill="url(#bgGradient)"/>
  
  <!-- Main logo -->
  <g transform="translate(220, 80)">
    <rect x="-40" y="-25" width="80" height="50" rx="8" fill="#2c3e50" stroke="#3498db" stroke-width="2"/>
    <text x="0" y="-5" font-family="Arial, sans-serif" font-size="18" font-weight="bold" fill="#2ecc71" text-anchor="middle">vim</text>
    <g transform="translate(0, 15)">
      <rect x="-24" y="-4" width="12" height="8" rx="2" fill="#95a5a6"/>
      <text x="-18" y="1" font-family="monospace" font-size="6" font-weight="bold" fill="#2c3e50" text-anchor="middle">h</text>
      <rect x="-10" y="-4" width="12" height="8" rx="2" fill="#95a5a6"/>
      <text x="-4" y="1" font-family="monospace" font-size="6" font-weight="bold" fill="#2c3e50" text-anchor="middle">j</text>
      <rect x="4" y="-4" width="12" height="8" rx="2" fill="#95a5a6"/>
      <text x="10" y="1" font-family="monospace" font-size="6" font-weight="bold" fill="#2c3e50" text-anchor="middle">k</text>
      <rect x="18" y="-4" width="12" height="8" rx="2" fill="#95a5a6"/>
      <text x="24" y="1" font-family="monospace" font-size="6" font-weight="bold" fill="#2c3e50" text-anchor="middle">l</text>
    </g>
  </g>
  
  <!-- Title -->
  <text x="220" y="150" font-family="Arial, sans-serif" font-size="24" font-weight="bold" fill="#ffffff" text-anchor="middle">cVim</text>
  <text x="220" y="175" font-family="Arial, sans-serif" font-size="14" fill="#bdc3c7" text-anchor="middle">Vim keybindings for Chrome</text>
  
  <!-- Feature highlights -->
  <g transform="translate(60, 200)">
    <!-- Link hints -->
    <circle cx="0" cy="0" r="8" fill="#ff6d01"/>
    <text x="0" y="3" font-family="monospace" font-size="8" font-weight="bold" fill="#ffffff" text-anchor="middle">f</text>
    <text x="20" y="4" font-family="Arial, sans-serif" font-size="12" fill="#ecf0f1">Link hints</text>
    
    <!-- Search -->
    <circle cx="120" cy="0" r="8" fill="#28a745"/>
    <text x="120" y="3" font-family="monospace" font-size="8" font-weight="bold" fill="#ffffff" text-anchor="middle">/</text>
    <text x="140" y="4" font-family="Arial, sans-serif" font-size="12" fill="#ecf0f1">Search</text>
    
    <!-- Commands -->
    <circle cx="220" cy="0" r="8" fill="#007bff"/>
    <text x="220" y="3" font-family="monospace" font-size="8" font-weight="bold" fill="#ffffff" text-anchor="middle">:</text>
    <text x="240" y="4" font-family="Arial, sans-serif" font-size="12" fill="#ecf0f1">Commands</text>
  </g>
  
  <!-- Navigation keys visualization -->
  <g transform="translate(60, 240)">
    <rect x="0" y="0" width="16" height="16" rx="2" fill="#3498db" opacity="0.8"/>
    <text x="8" y="11" font-family="monospace" font-size="8" font-weight="bold" fill="#ffffff" text-anchor="middle">h</text>
    
    <rect x="20" y="0" width="16" height="16" rx="2" fill="#3498db" opacity="0.8"/>
    <text x="28" y="11" font-family="monospace" font-size="8" font-weight="bold" fill="#ffffff" text-anchor="middle">j</text>
    
    <rect x="40" y="0" width="16" height="16" rx="2" fill="#3498db" opacity="0.8"/>
    <text x="48" y="11" font-family="monospace" font-size="8" font-weight="bold" fill="#ffffff" text-anchor="middle">k</text>
    
    <rect x="60" y="0" width="16" height="16" rx="2" fill="#3498db" opacity="0.8"/>
    <text x="68" y="11" font-family="monospace" font-size="8" font-weight="bold" fill="#ffffff" text-anchor="middle">l</text>
    
    <text x="90" y="11" font-family="Arial, sans-serif" font-size="10" fill="#bdc3c7">Navigate with Vim keys</text>
  </g>
  
  <!-- Decorative elements -->
  <circle cx="380" cy="50" r="3" fill="#3498db" opacity="0.6"/>
  <circle cx="400" cy="70" r="2" fill="#2ecc71" opacity="0.6"/>
  <circle cx="360" cy="90" r="2" fill="#e74c3c" opacity="0.6"/>
  
  <circle cx="60" cy="50" r="2" fill="#f39c12" opacity="0.6"/>
  <circle cx="40" cy="70" r="3" fill="#9b59b6" opacity="0.6"/>
  <circle cx="80" cy="90" r="2" fill="#1abc9c" opacity="0.6"/>
</svg>